<svg width="200" height="200" viewBox="0 0 200 200" fill="none" xmlns="http://www.w3.org/2000/svg">
  <defs>
    <linearGradient id="paint0_linear" x1="20" y1="20" x2="180" y2="180" gradientUnits="userSpaceOnUse">
      <stop stop-color="#22C55E"/>
      <stop offset="1" stop-color="#15803D"/>
    </linearGradient>
    <filter id="filter0_d" x="0" y="0" width="200" height="200" filterUnits="userSpaceOnUse" color-interpolation-filters="sRGB">
      <feFlood flood-opacity="0" result="BackgroundImageFix"/>
      <feColorMatrix in="SourceAlpha" type="matrix" values="0 0 0 0 0 0 0 0 0 0 0 0 0 0 0 0 0 0 127 0"/>
      <feOffset dy="4"/>
      <feGaussianBlur stdDeviation="10"/>
      <feColorMatrix type="matrix" values="0 0 0 0 0.133333 0 0 0 0 0.772549 0 0 0 0 0.368627 0 0 0 0.25 0"/>
      <feBlend mode="normal" in2="BackgroundImageFix" result="effect1_dropShadow"/>
      <feBlend mode="normal" in="SourceGraphic" in2="effect1_dropShadow" result="shape"/>
    </filter>
  </defs>
  <g filter="url(#filter0_d)">
    <path d="M100 30L40 55V105C40 142.005 65.5786 175.98 100 185C134.421 175.98 160 142.005 160 105V55L100 30Z" fill="url(#paint0_linear)"/>
    <path d="M100 65C86.1929 65 75 76.1929 75 90C75 103.807 86.1929 115 100 115C113.807 115 125 103.807 125 90C125 76.1929 113.807 65 100 65Z" fill="white" fill-opacity="0.2"/>
    <path d="M115 80C115 80 105 85 100 100C95 85 85 80 85 80C85 80 95 75 100 60C105 75 115 80 115 80Z" fill="white"/>
  </g>
</svg>
